<svg width="22" height="22" viewBox="0 0 22 22" fill="none" xmlns="http://www.w3.org/2000/svg">
<path d="M20.4126 7.81456C20.0717 6.76017 20.5379 5.28496 19.8992 4.40732C19.2544 3.52126 17.702 3.51191 16.816 2.86665C15.9388 2.22841 15.4534 0.751795 14.3995 0.409528C13.383 0.0794183 12.1271 0.978103 10.9998 0.978103C9.8729 0.978103 8.61652 0.0794183 7.60001 0.409528C6.54609 0.751328 6.06074 2.22841 5.1831 2.86665C4.29704 3.51191 2.74562 3.52126 2.10083 4.40732C1.46258 5.28496 1.92829 6.76017 1.58649 7.81456C1.25591 8.83107 0 9.74612 0 10.8739C0 12.0008 1.25591 12.9158 1.58649 13.9328C1.92782 14.9867 1.46165 16.4624 2.10083 17.3401C2.74562 18.2261 4.29751 18.2355 5.18357 18.8803C6.06074 19.5185 6.54609 20.9951 7.60001 21.3383C8.61699 21.668 9.87244 20.7693 10.9998 20.7693C12.1271 20.7693 13.383 21.668 14.3995 21.3383C15.4534 20.996 15.9388 19.5185 16.816 18.8807C17.7025 18.2359 19.2539 18.2261 19.8996 17.3401C20.5374 16.4629 20.0712 14.9872 20.413 13.9333C20.7436 12.9163 22 12.0008 22 10.8739C21.9991 9.74612 20.7432 8.83154 20.4126 7.81456ZM10.9998 18.625C6.71909 18.625 3.24873 15.1541 3.24873 10.8739C3.24873 6.59278 6.71909 3.12241 10.9998 3.12241C15.2809 3.12241 18.7508 6.59278 18.7508 10.8739C18.7508 15.1541 15.2809 18.625 10.9998 18.625Z" fill="black"/>
<path d="M10.9996 4.11084C7.2707 4.11084 4.23706 7.14448 4.23706 10.8734C4.23706 14.6023 7.2707 17.636 10.9996 17.636C14.7286 17.636 17.7622 14.6023 17.7622 10.8734C17.7622 7.14448 14.7286 4.11084 10.9996 4.11084ZM10.9996 16.5316C7.87949 16.5316 5.34101 13.9931 5.34101 10.8729C5.34101 7.7528 7.87949 5.21432 10.9996 5.21432C14.1193 5.21432 16.6583 7.75234 16.6583 10.8729C16.6583 13.9936 14.1193 16.5316 10.9996 16.5316Z" fill="black"/>
<path d="M11.6235 10.1289C10.765 9.80533 10.4111 9.59305 10.4111 9.26014C10.4111 8.97725 10.6234 8.6939 11.2799 8.6939C11.6787 8.6939 11.9981 8.76357 12.2491 8.84493C12.3749 8.88561 12.5119 8.87158 12.6269 8.80565C12.742 8.73972 12.8233 8.62797 12.8509 8.49892L12.9009 8.26513C12.95 8.03508 12.8215 7.8055 12.5994 7.72695C12.3646 7.64325 12.0495 7.58107 11.4669 7.56236V7.13359C11.4669 6.87549 11.2569 6.66602 10.9993 6.66602C10.7412 6.66602 10.5317 6.87549 10.5317 7.13359V7.6325C9.59657 7.84525 8.84424 8.54194 8.84424 9.43174C8.84424 10.4118 9.59283 10.9172 10.6739 11.2815C11.422 11.534 11.7502 11.7766 11.7502 12.1605C11.7502 12.5645 11.3589 12.7871 10.7833 12.7871C10.3461 12.7871 9.93697 12.6931 9.58722 12.5626C9.46284 12.5159 9.32397 12.5248 9.20661 12.587C9.08878 12.6487 9.00228 12.7572 8.96955 12.8867L8.90643 13.1382C8.84658 13.3762 8.9803 13.6194 9.21362 13.696C9.63865 13.8359 10.1923 13.9383 10.5327 13.9598V14.6153C10.5327 14.8734 10.7421 15.0829 11.0002 15.0829C11.2583 15.0829 11.4678 14.8734 11.4678 14.6153V13.8882C12.8705 13.6853 13.2895 12.9189 13.2895 12.0193C13.289 11.1094 12.8266 10.5525 11.6235 10.1289Z" fill="black"/>
</svg>
